<?xml version='1.0' encoding='iso-8859-1'?>
<svg version="1.1" xmlns="http://www.w3.org/2000/svg" viewBox="0 0 500 500" xmlns:xlink="http://www.w3.org/1999/xlink" enable-background="new 0 0 500 500">
<style>
    * {
      stroke: black;
      fill: black;
    }
    #border {
      fill: none;
    }
    @media (prefers-color-scheme: dark) {
      * {
        stroke: white;
        fill: white;
      }
    }
  </style>
  <rect x="100" y="40" height="20" width="300" />
  <rect x="90" y="140" height="20" width="130" rx="10" />
  <rect x="290" y="140" height="20" width="120" rx="10" />
  <g fill="none" stroke-width="20">
    <path d="M 100 50 A 10 10 0 0 0 100 150" />
    <path d="M 400 50 A 10 10 0 0 1 400 150" />
    <path d="M210 50 Q 160 100, 130 100" stroke-linecap="round" />
    <path d="M210 150 Q 250 150, 290 100" stroke-linecap="round" />
    <rect id="border" fill="none" x="20" y="20" height="460" width="460" rx="50" />
  </g>
  <rect x="140" y="140" height="160" width="20" rx="10" />
  <rect x="340" y="140" height="160" width="20" rx="10" />
  
  <rect x="120" y="320" height="20" width="300" rx="10" transform="rotate(-1)" />
  <rect x="160" y="330" height="20" width="220" rx="10" transform="rotate(-1)" />
  <rect x="80" y="360" height="20" width="300" rx="10" transform="rotate(1)"/>
  <rect x="120" y="370" height="20" width="220" rx="10" transform="rotate(1)"/>
  <rect x="120" y="420" height="20" width="300" rx="10" transform="rotate(-1)" />
  <rect x="160" y="430" height="20" width="220" rx="10" transform="rotate(-1)"/>
</svg>
