<?xml version="1.0" encoding="iso-8859-1"?>
<!-- Source https://www.svgrepo.com/svg/33517/printer -->
<!-- Generator: Adobe Illustrator 19.0.0, SVG Export Plug-In . SVG Version: 6.00 Build 0)  -->
<svg version="1.1" id="Capa_1" xmlns="http://www.w3.org/2000/svg" xmlns:xlink="http://www.w3.org/1999/xlink" x="0px" y="0px"
	 viewBox="0 0 490 490" style="enable-background: new 0 0 490 490" xml:space="preserve">
	<g>
		<path d="M 420.9 104.3 h -44.2 V 0 H 113.2 v 104.3 H 69.1 C 31 104.3 0 136.5 0 176.1 v 123.7 c 0 39.6 31 71.8 69.1 71.8 h 33.5 V 490 h 284.8 V 371.7 h 33.5 c 38.1 0 69.1 -32.2 69.1 -71.8 V 176.1 C 490 136.5 459 104.3 420.9 104.3 z M 134.1 20.9 h 221.8 v 83.4 H 134.1 V 20.9 z M 366.6 469.1 H 123.4 V 290.2 h 243.1 V 469.1 z M 469.1 299.8 c 0 28.1 -21.6 51 -48.2 51 h -33.5 v -81.5 H 102.6 v 81.5 H 69.1 c -26.6 0 -48.2 -22.9 -48.2 -51 V 176.1 c 0 -28.1 21.6 -51 48.2 -51 h 351.9 c 26.6 0 48.2 22.9 48.2 51 V 299.8 z"/>
		<rect x="174" y="338" width="142" height="20.9"/>
		<rect x="174" y="395.5" width="142" height="20.9"/>
		<rect x="366.3" y="173.4" width="31.1" height="20.9"/>
		<rect x="-10" y="50" width="20" height="600.9" transform="rotate(-45)" />
	</g>
</svg>
